<svg id="Layer_1" data-name="Layer 1" xmlns="http://www.w3.org/2000/svg" viewBox="0 0 100 100"><defs><style>.cls-1{fill:none;stroke:#343434;stroke-linecap:round;stroke-linejoin:round;stroke-width:3px;}.cls-2{fill:#343434;}</style></defs><title>171020_Klarna_Icons_100x100</title><path id="_Path_" data-name="&lt;Path&gt;" class="cls-1" d="M50,41.66532c2.56521,0,3.4358,4.222,5.84876,11.15343C58.70912,61.0354,58.86329,68,77.61915,68c17.33265,0,18.35814-15.88938,18.769-23.78475A18.65107,18.65107,0,0,1,98.5,37.4653V33.36393A217.91813,217.91813,0,0,0,75.0197,32C62.67231,32,57.79835,33.11521,50,33.11521S37.32769,32,24.9803,32A217.91813,217.91813,0,0,0,1.5,33.36393V37.4653a18.65107,18.65107,0,0,1,2.11186,6.75C4.02272,52.11062,5.0482,68,22.38085,68c18.75585,0,18.91-6.9646,21.77039-15.18125C46.5642,45.88732,47.43479,41.66532,50,41.66532Z"/><path class="cls-2" d="M86.73535,37.92969c-3.20312-.35645-8.11523-0.52441-11.35254-0.56055C67.085,37.272,62.56494,37.77246,60.728,38.97461c-2.44775,1.60156-2.15576,3.97705.043,10.78369l0.48926,1.54053c2.20361,6.999,3.4209,10.86475,15.9585,10.86475,0.04395,0,.084-0.00244.13184,0a11.58487,11.58487,0,0,0,8.53857-3.31836c4.60205-4.61572,4.53564-12.3335,4.52588-12.55078,0.11426-1.21436.17188-2.46924,0.16895-3.668A4.222,4.222,0,0,0,86.73535,37.92969Zm-22.44629,12.106a1.5003,1.5003,0,0,1-1.18652-2.417l5.60059-7.251a1.50019,1.50019,0,0,1,2.375,1.8335l-5.60059,7.25146A1.5,1.5,0,0,1,64.28906,50.03564ZM79.99316,42.228L68.73535,56.14648a1.49984,1.49984,0,0,1-2.332-1.88672L77.66113,40.34131A1.49984,1.49984,0,1,1,79.99316,42.228Z"/><path class="cls-2" d="M39.27246,38.97314c-1.83691-1.19971-6.35937-1.69629-14.65527-1.604-3.2373.03613-8.14941,0.2041-11.35254,0.56055A4.20115,4.20115,0,0,0,9.41455,42.562c-0.002,1.25342.05518,2.50977,0.16553,3.623-0.00537.32666-.07178,8.04443,4.53027,12.66016a11.58538,11.58538,0,0,0,8.53613,3.31836h0.13135c12.53906-.001,13.7583-3.86572,15.96289-10.86621l0.48877-1.53906C41.42773,42.95166,41.71973,40.57617,39.27246,38.97314ZM13.41992,50.03467a1.5003,1.5003,0,0,1-1.18652-2.417l5.60059-7.251a1.50019,1.50019,0,0,1,2.375,1.8335l-5.60059,7.251A1.49908,1.49908,0,0,1,13.41992,50.03467ZM29.124,42.22656L17.86621,56.145a1.49984,1.49984,0,1,1-2.332-1.88672L26.792,40.33984A1.49984,1.49984,0,1,1,29.124,42.22656Z"/></svg>