<svg id="Layer_1" data-name="Layer 1" xmlns="http://www.w3.org/2000/svg" viewBox="0 0 100 100"><defs><style>.cls-1{fill:none;stroke:#343434;stroke-linecap:round;stroke-linejoin:round;stroke-width:3px;}</style></defs><title>171020_Klarna_Icons_100x100</title><path id="_Path_" data-name="&lt;Path&gt;" class="cls-1" d="M41.08257,68.50408a6.75826,6.75826,0,0,1,.13851,9.5931l-0.372.37916a6.916,6.916,0,0,1-9.68513.13719L20.24422,67.90361c-3.81649-3.813-4.17584-8.65764-1.55052-11.33347l0.372-.37916a6.44523,6.44523,0,0,1,8.54578-.559"/><path id="_Path_2" data-name="&lt;Path&gt;" class="cls-1" d="M46.92134,63.14367a6.751,6.751,0,0,1-2.71023,3.74694l-0.44034.29884a6.91071,6.91071,0,0,1-9.52137-1.762L25.68271,52.79073c-2.98016-4.485-2.36549-9.30445.74207-11.41341l0.44034-.29884c4.87291-2.804,8.429.66643,10.55816,3.74447l7.17124,10.57832"/><path class="cls-1" d="M53.05023,82.10228C53.81074,66.64663,68.11659,69.2952,68.11659,69.2952L53.05023,65.96711c-10.36655-2.79775-9.09211-8.51808-8.26581-11.25525C46.81907,47.972,55.068,50.31351,55.068,50.31351l22.75935,5.20508s6.065,0.92763,5.06035,12.812c-1.03079,12.19365-6.28459,30.2992-31.38849,30.16873-13.55392-.18-27.10784-9.72219-27.10784-26.52824"/><path id="_Path_3" data-name="&lt;Path&gt;" class="cls-1" d="M39.9731,48.58419l-5.03342-38.2484c-0.44339-4.12536,1.3274-7.87959,5.49591-8.67955s7.85487,1.48443,9.16816,6.56424l7.16989,32.585L66.39587,8.29419C67.99283,3.29474,71.802,1.2173,75.919,2.246s5.67392,4.87485,4.9992,8.96933L72.21408,54.23484"/></svg>