<svg id="Layer_1" data-name="Layer 1" xmlns="http://www.w3.org/2000/svg" viewBox="0 0 100 100"><defs><style>.cls-1{fill:none;stroke:#343434;stroke-linecap:round;stroke-linejoin:round;stroke-width:3px;}</style></defs><title>171020_Klarna_Icons_100x100</title><path class="cls-1" d="M52.44666,23.36146l3.70809,11.41233a2.38411,2.38411,0,0,0,2.26743,1.64738H70.42181a2.38411,2.38411,0,0,1,1.40135,4.3129l-9.70791,7.05321a2.38411,2.38411,0,0,0-.86608,2.66552l3.70809,11.41233a2.38411,2.38411,0,0,1-3.66877,2.66552l-9.70791-7.05321a2.38411,2.38411,0,0,0-2.80269,0L39.07,64.53065a2.38411,2.38411,0,0,1-3.66877-2.66552L39.1093,50.4528a2.38411,2.38411,0,0,0-.86608-2.66552l-9.70791-7.05321a2.38411,2.38411,0,0,1,1.40135-4.3129H41.93629a2.38411,2.38411,0,0,0,2.26743-1.64738l3.70809-11.41233A2.38411,2.38411,0,0,1,52.44666,23.36146Z"/><path class="cls-1" d="M30.0459,76.70321l0.02572,14.9482a4.5996,4.5996,0,0,0,8.0282,3.02163l16.95844-18.0168,15.38234-.04312a22.21085,22.21085,0,0,0,22.23858-22.177l-0.02782-21.153a22.20613,22.20613,0,0,0-22.33877-22.071l-40.3947.0901A22.20431,22.20431,0,0,0,7.67929,33.4727L7.70713,54.63223A22.20613,22.20613,0,0,0,30.0459,76.70321Z"/></svg>