<svg id="Layer_1" data-name="Layer 1" xmlns="http://www.w3.org/2000/svg" viewBox="0 0 100 100"><defs><style>.cls-1,.cls-2{fill:none;stroke:#343434;stroke-linejoin:round;stroke-width:3px;}.cls-1{stroke-linecap:round;}</style></defs><title>171020_Klarna_Icons_100x100</title><path id="_Path_" data-name="&lt;Path&gt;" class="cls-1" d="M1.5,73.39748A97.59224,97.59224,0,0,1,41.7075,10L98.5,90Z"/><path id="_Path_2" data-name="&lt;Path&gt;" class="cls-2" d="M49.31563,20.7171c-3.01336,3.00666-7.8976,10.04342-12.511,10.11685-9.21045.1466-11.60858,6.533-11.441,11.76082,0.14785,4.612,1.861,4.95917-7.18853,14.68959-7.2756,7.823-5.09983,15.46043-2.804,18.48733"/><path id="_Path_3" data-name="&lt;Path&gt;" class="cls-1" d="M41.31959,80.0864a16.076,16.076,0,0,1,30.82394,5.30291"/><path id="_Path_4" data-name="&lt;Path&gt;" class="cls-1" d="M36.55481,66.35549a14.46492,14.46492,0,0,0-12.618,3.64055"/><path id="_Path_5" data-name="&lt;Path&gt;" class="cls-1" d="M63.26433,57.93391a14.38719,14.38719,0,0,0,9.43231,9.10084"/><path class="cls-1" d="M56.19492,44.79219a11.26479,11.26479,0,1,1-14.728-6.07232A11.19951,11.19951,0,0,1,56.19492,44.79219Z"/></svg>